<svg width="25" height="24" viewBox="0 0 25 24" fill="none" xmlns="http://www.w3.org/2000/svg">
<g clip-path="url(#clip0_39:500)">
<path d="M24.3334 12C24.3334 0 24.3334 0 12.3334 0C0.333374 0 0.333374 0 0.333374 12C0.333374 24 0.333374 24 12.3334 24C24.3334 24 12.474 24 12.5443 23.9953V14.6578H9.96619V11.6531H12.5443V9.44062C12.5443 6.87656 14.1099 5.47969 16.3974 5.47969C17.4943 5.47969 18.4365 5.55938 18.7084 5.59688V8.27813H17.1334C15.8912 8.27813 15.6474 8.86875 15.6474 9.73594V11.6484H18.624L18.2349 14.6531H15.6474L15.8334 24C24.3334 24 24.3334 24 24.3334 12Z" fill="#FFF1ED"/>
</g>
<defs>
<clipPath id="clip0_39:500">
<rect x="0.333374" width="24" height="24" fill="white"/>
</clipPath>
</defs>
</svg>
