<svg width="25" height="24" viewBox="0 0 25 24" fill="none" xmlns="http://www.w3.org/2000/svg">
<g clip-path="url(#clip0_39:310)">
<path d="M24.3335 12C24.3335 0 24.3335 0 12.3335 0C0.333496 0 0.333496 0 0.333496 12C0.333496 24 0.333496 24 12.3335 24C24.3335 24 12.4741 24 12.5444 23.9953V14.6578H9.96631V11.6531H12.5444V9.44062C12.5444 6.87656 14.1101 5.47969 16.3976 5.47969C17.4944 5.47969 18.4366 5.55938 18.7085 5.59688V8.27813H17.1335C15.8913 8.27813 15.6476 8.86875 15.6476 9.73594V11.6484H18.6241L18.2351 14.6531H15.6476L15.8335 24C24.3335 24 24.3335 24 24.3335 12Z" fill="#FF3D4C"/>
</g>
<defs>
<clipPath id="clip0_39:310">
<rect x="0.333496" width="24" height="24" fill="white"/>
</clipPath>
</defs>
</svg>
