<svg width="64" height="64" viewBox="0 0 64 64" fill="none" xmlns="http://www.w3.org/2000/svg">
<path d="M46 18H18C16.8954 18 16 18.8954 16 20C16 21.1046 16.8954 22 18 22H46C47.1046 22 48 21.1046 48 20C48 18.8954 47.1046 18 46 18Z" fill="white"/>
<path d="M46 30H18C16.8954 30 16 30.8954 16 32C16 33.1046 16.8954 34 18 34H46C47.1046 34 48 33.1046 48 32C48 30.8954 47.1046 30 46 30Z" fill="white"/>
<path d="M46 42H18C16.8954 42 16 42.8954 16 44C16 45.1046 16.8954 46 18 46H46C47.1046 46 48 45.1046 48 44C48 42.8954 47.1046 42 46 42Z" fill="white"/>
</svg>
