<svg width="64" height="64" viewBox="0 0 64 64" fill="none" xmlns="http://www.w3.org/2000/svg">
<path d="M43.3135 40.4852L23.5146 20.6862C22.7335 19.9051 21.4672 19.9051 20.6861 20.6862C19.9051 21.4672 19.9051 22.7336 20.6861 23.5146L40.4851 43.3136C41.2662 44.0947 42.5325 44.0947 43.3135 43.3136C44.0946 42.5326 44.0946 41.2662 43.3135 40.4852Z" fill="white"/>
<path d="M40.4853 20.6862L20.6863 40.4852C19.9053 41.2662 19.9053 42.5326 20.6863 43.3136C21.4674 44.0947 22.7337 44.0947 23.5147 43.3136L43.3137 23.5146C44.0948 22.7336 44.0948 21.4673 43.3137 20.6862C42.5327 19.9052 41.2663 19.9052 40.4853 20.6862Z" fill="white"/>
</svg>
