<svg width="25" height="24" viewBox="0 0 25 24" fill="none" xmlns="http://www.w3.org/2000/svg">
<g clip-path="url(#clip0_39:505)">
<path d="M14.6302 12C14.6302 13.2686 13.6019 14.2969 12.3334 14.2969C11.0648 14.2969 10.0365 13.2686 10.0365 12C10.0365 10.7314 11.0648 9.70312 12.3334 9.70312C13.6019 9.70312 14.6302 10.7314 14.6302 12Z" fill="#FFF1ED"/>
<path d="M17.7047 7.93622C17.5942 7.63702 17.4181 7.36621 17.1892 7.14392C16.9669 6.91504 16.6963 6.73889 16.3969 6.62848C16.1541 6.53418 15.7894 6.42194 15.1176 6.39136C14.3908 6.35822 14.1729 6.35107 12.3331 6.35107C10.493 6.35107 10.2751 6.35803 9.54858 6.39117C8.87677 6.42194 8.51184 6.53418 8.26923 6.62848C7.96985 6.73889 7.69904 6.91504 7.47693 7.14392C7.24805 7.36621 7.0719 7.63684 6.9613 7.93622C6.867 8.17902 6.75476 8.54395 6.72418 9.21576C6.69104 9.94232 6.6839 10.1602 6.6839 12.0002C6.6839 13.8401 6.69104 14.058 6.72418 14.7847C6.75476 15.4565 6.867 15.8213 6.9613 16.0641C7.0719 16.3635 7.24786 16.6341 7.47675 16.8564C7.69904 17.0853 7.96967 17.2614 8.26904 17.3718C8.51184 17.4663 8.87677 17.5786 9.54858 17.6091C10.2751 17.6423 10.4929 17.6492 12.3329 17.6492C14.1731 17.6492 14.391 17.6423 15.1174 17.6091C15.7892 17.5786 16.1541 17.4663 16.3969 17.3718C16.9979 17.14 17.4728 16.665 17.7047 16.0641C17.799 15.8213 17.9112 15.4565 17.942 14.7847C17.9751 14.058 17.9821 13.8401 17.9821 12.0002C17.9821 10.1602 17.9751 9.94232 17.942 9.21576C17.9114 8.54395 17.7991 8.17902 17.7047 7.93622ZM12.3331 15.5384C10.3788 15.5384 8.79456 13.9544 8.79456 12.0001C8.79456 10.0458 10.3788 8.46173 12.3331 8.46173C14.2872 8.46173 15.8714 10.0458 15.8714 12.0001C15.8714 13.9544 14.2872 15.5384 12.3331 15.5384ZM16.0113 9.14874C15.5546 9.14874 15.1844 8.77851 15.1844 8.32184C15.1844 7.86517 15.5546 7.49493 16.0113 7.49493C16.468 7.49493 16.8382 7.86517 16.8382 8.32184C16.838 8.77851 16.468 9.14874 16.0113 9.14874Z" fill="#FFF1ED"/>
<path d="M12.3334 0C0.333374 0 0.333374 0 0.333374 12C0.333374 24 0.333374 24 12.3334 24C24.3334 24 24.3334 24 24.3334 12C24.3334 0 24.3334 0 12.3334 0ZM19.1824 14.8409C19.1491 15.5744 19.0325 16.0752 18.8622 16.5135C18.5042 17.4391 17.7725 18.1708 16.8469 18.5288C16.4088 18.6991 15.9078 18.8156 15.1744 18.8491C14.4396 18.8826 14.2049 18.8906 12.3336 18.8906C10.462 18.8906 10.2275 18.8826 9.49249 18.8491C8.75916 18.8156 8.25818 18.6991 7.82001 18.5288C7.36005 18.3558 6.94366 18.0846 6.59943 17.7339C6.24896 17.3899 5.97778 16.9733 5.80475 16.5135C5.63446 16.0754 5.51782 15.5744 5.4845 14.8411C5.45062 14.1061 5.44275 13.8713 5.44275 12C5.44275 10.1287 5.45062 9.89392 5.48431 9.15912C5.51764 8.4256 5.63409 7.9248 5.80438 7.48645C5.97742 7.02667 6.24878 6.61011 6.59943 6.26605C6.94348 5.91541 7.36005 5.64423 7.81982 5.47119C8.25818 5.3009 8.75897 5.18445 9.49249 5.15094C10.2273 5.11743 10.462 5.10938 12.3334 5.10938C14.2047 5.10938 14.4395 5.11743 15.1743 5.15112C15.9078 5.18445 16.4086 5.3009 16.8469 5.47101C17.3067 5.64404 17.7233 5.91541 18.0675 6.26605C18.418 6.61029 18.6893 7.02667 18.8622 7.48645C19.0327 7.9248 19.1491 8.4256 19.1826 9.15912C19.2161 9.89392 19.224 10.1287 19.224 12C19.224 13.8713 19.2161 14.1061 19.1824 14.8409Z" fill="#FFF1ED"/>
</g>
<defs>
<clipPath id="clip0_39:505">
<rect x="0.333374" width="24" height="24" fill="white"/>
</clipPath>
</defs>
</svg>
