<svg width="137" height="37" viewBox="0 0 137 37" fill="none" xmlns="http://www.w3.org/2000/svg">
<path d="M3.10392 36C2.36792 36 1.72792 35.728 1.18392 35.184C0.63992 34.64 0.36792 34 0.36792 33.264V13.776C0.36792 13.04 0.63992 12.4 1.18392 11.856C1.72792 11.312 2.36792 11.04 3.10392 11.04H5.79192C6.52792 11.04 7.16792 11.312 7.71192 11.856C8.25592 12.4 8.52792 13.04 8.52792 13.776V33.264C8.52792 34 8.25592 34.64 7.71192 35.184C7.16792 35.728 6.52792 36 5.79192 36H3.10392ZM3.10392 6.24C2.36792 6.24 1.72792 5.968 1.18392 5.424C0.63992 4.88 0.36792 4.24 0.36792 3.504V2.736C0.36792 2 0.63992 1.36 1.18392 0.816001C1.72792 0.272 2.36792 0 3.10392 0H5.79192C6.52792 0 7.16792 0.272 7.71192 0.816001C8.25592 1.36 8.52792 2 8.52792 2.736V3.504C8.52792 4.24 8.25592 4.88 7.71192 5.424C7.16792 5.968 6.52792 6.24 5.79192 6.24H3.10392Z" fill="#3F4A5B"/>
<path d="M19.0414 36C18.3054 36 17.6654 35.728 17.1214 35.184C16.5774 34.64 16.3054 34 16.3054 33.264V2.736C16.3054 2 16.5774 1.36 17.1214 0.816001C17.6654 0.272 18.3054 0 19.0414 0H21.7294C22.4654 0 23.1054 0.272 23.6494 0.816001C24.1934 1.36 24.4654 2 24.4654 2.736V33.264C24.4654 34 24.1934 34.64 23.6494 35.184C23.1054 35.728 22.4654 36 21.7294 36H19.0414Z" fill="#3F4A5B"/>
<path d="M34.7164 36C33.9804 36 33.3404 35.728 32.7964 35.184C32.2524 34.64 31.9804 34 31.9804 33.264V13.776C31.9804 13.04 32.2524 12.4 32.7964 11.856C33.3404 11.312 33.9804 11.04 34.7164 11.04H36.4924C37.2604 11.04 37.9004 11.312 38.4124 11.856C38.9564 12.368 39.2604 13.008 39.3244 13.776L39.3724 14.208C39.3724 14.24 39.3884 14.256 39.4204 14.256C39.4844 14.256 39.5164 14.24 39.5164 14.208C41.4044 11.776 43.5644 10.56 45.9964 10.56C47.4684 10.56 48.6364 10.832 49.5004 11.376C50.3644 11.888 51.1644 12.816 51.9004 14.16C51.9004 14.224 51.9324 14.256 51.9964 14.256L52.0924 14.16C54.3004 11.76 56.6044 10.56 59.0044 10.56C61.7244 10.56 63.6924 11.296 64.9084 12.768C66.1244 14.208 66.7324 16.672 66.7324 20.16V33.264C66.7324 34 66.4604 34.64 65.9164 35.184C65.3724 35.728 64.7324 36 63.9964 36H61.8844C61.1484 36 60.5084 35.728 59.9644 35.184C59.4204 34.64 59.1484 34 59.1484 33.264V20.64C59.1484 18.912 58.9564 17.776 58.5724 17.232C58.1884 16.656 57.4684 16.368 56.4124 16.368C55.6764 16.368 54.9564 16.672 54.2524 17.28C53.5804 17.888 53.2444 18.48 53.2444 19.056V33.264C53.2444 34 52.9724 34.64 52.4284 35.184C51.8844 35.728 51.2444 36 50.5084 36H48.3964C47.6604 36 47.0204 35.728 46.4764 35.184C45.9324 34.64 45.6604 34 45.6604 33.264V20.64C45.6604 18.912 45.4684 17.776 45.0844 17.232C44.7324 16.656 44.0284 16.368 42.9724 16.368C42.2364 16.368 41.5164 16.672 40.8124 17.28C40.1084 17.888 39.7564 18.48 39.7564 19.056V33.264C39.7564 34 39.4844 34.64 38.9404 35.184C38.3964 35.728 37.7564 36 37.0204 36H34.7164Z" fill="#3F4A5B"/>
<path d="M76.7446 36C76.0086 36 75.3685 35.728 74.8245 35.184C74.2805 34.64 74.0085 34 74.0085 33.264V13.776C74.0085 13.04 74.2805 12.4 74.8245 11.856C75.3685 11.312 76.0086 11.04 76.7446 11.04H79.4325C80.1685 11.04 80.8085 11.312 81.3525 11.856C81.8965 12.4 82.1685 13.04 82.1685 13.776V33.264C82.1685 34 81.8965 34.64 81.3525 35.184C80.8085 35.728 80.1685 36 79.4325 36H76.7446ZM76.7446 6.24C76.0086 6.24 75.3685 5.968 74.8245 5.424C74.2805 4.88 74.0085 4.24 74.0085 3.504V2.736C74.0085 2 74.2805 1.36 74.8245 0.816001C75.3685 0.272 76.0086 0 76.7446 0H79.4325C80.1685 0 80.8085 0.272 81.3525 0.816001C81.8965 1.36 82.1685 2 82.1685 2.736V3.504C82.1685 4.24 81.8965 4.88 81.3525 5.424C80.8085 5.968 80.1685 6.24 79.4325 6.24H76.7446Z" fill="#3F4A5B"/>
<path d="M90.4995 36C89.8915 36 89.4275 35.744 89.1075 35.232C88.8195 34.72 88.8355 34.192 89.1555 33.648L94.9155 23.616C95.0435 23.392 95.0435 23.168 94.9155 22.944L89.3955 13.392C89.0755 12.848 89.0595 12.32 89.3475 11.808C89.6675 11.296 90.1315 11.04 90.7395 11.04H93.6196C94.4196 11.04 95.1715 11.28 95.8755 11.76C96.5795 12.208 97.1075 12.8 97.4595 13.536L100.148 19.344C100.148 19.376 100.164 19.392 100.196 19.392C100.228 19.392 100.244 19.376 100.244 19.344L102.932 13.536C103.252 12.8 103.764 12.208 104.468 11.76C105.172 11.28 105.94 11.04 106.772 11.04H109.46C110.036 11.04 110.468 11.296 110.756 11.808C111.076 12.32 111.092 12.848 110.804 13.392L105.284 22.944C105.124 23.168 105.124 23.392 105.284 23.616L111.044 33.648C111.332 34.192 111.316 34.72 110.996 35.232C110.708 35.744 110.276 36 109.7 36H106.82C105.988 36 105.204 35.776 104.468 35.328C103.764 34.88 103.252 34.288 102.932 33.552L100.052 27.312C100.052 27.28 100.036 27.264 100.004 27.264C99.9715 27.264 99.9556 27.28 99.9556 27.312L97.0755 33.552C96.7235 34.288 96.1795 34.88 95.4435 35.328C94.7395 35.776 93.9875 36 93.1875 36H90.4995Z" fill="#3F4A5B"/>
<path d="M126.756 24.576C122.852 24.576 120.9 25.776 120.9 28.176C120.9 29.04 121.156 29.728 121.668 30.24C122.18 30.72 122.868 30.96 123.732 30.96C125.268 30.96 126.516 30.48 127.476 29.52C128.436 28.528 128.916 27.216 128.916 25.584V25.008C128.916 24.72 128.772 24.576 128.484 24.576H126.756ZM121.38 36.48C119.172 36.48 117.348 35.776 115.908 34.368C114.5 32.928 113.796 31.072 113.796 28.8C113.796 22.976 118.116 20.064 126.756 20.064H128.484C128.772 20.064 128.916 19.936 128.916 19.68V19.44C128.916 18.224 128.596 17.344 127.956 16.8C127.348 16.256 126.308 15.984 124.836 15.984C122.884 15.984 120.548 16.288 117.828 16.896C117.156 17.024 116.548 16.88 116.004 16.464C115.492 16.048 115.236 15.504 115.236 14.832V14.736C115.236 13.936 115.476 13.216 115.956 12.576C116.468 11.904 117.108 11.504 117.876 11.376C120.692 10.832 123.124 10.56 125.172 10.56C129.364 10.56 132.324 11.312 134.052 12.816C135.812 14.32 136.692 16.816 136.692 20.304V33.264C136.692 34 136.42 34.64 135.876 35.184C135.332 35.728 134.692 36 133.956 36H132.18C131.412 36 130.756 35.744 130.212 35.232C129.668 34.688 129.38 34.032 129.348 33.264V32.736C129.348 32.704 129.332 32.688 129.3 32.688C129.236 32.688 129.204 32.704 129.204 32.736C127.188 35.232 124.58 36.48 121.38 36.48Z" fill="#3F4A5B"/>
</svg>
