<svg width="112" height="36" viewBox="0 0 112 36" fill="none" xmlns="http://www.w3.org/2000/svg">
<path d="M3.10398 36C2.36798 36 1.72798 35.728 1.18398 35.184C0.639981 34.64 0.367981 34 0.367981 33.264V13.776C0.367981 13.04 0.639981 12.4 1.18398 11.856C1.72798 11.312 2.36798 11.04 3.10398 11.04H5.79198C6.52798 11.04 7.16798 11.312 7.71198 11.856C8.25598 12.4 8.52798 13.04 8.52798 13.776V33.264C8.52798 34 8.25598 34.64 7.71198 35.184C7.16798 35.728 6.52798 36 5.79198 36H3.10398ZM3.10398 6.24C2.36798 6.24 1.72798 5.968 1.18398 5.424C0.639981 4.88 0.367981 4.24 0.367981 3.504V2.736C0.367981 2 0.639981 1.36 1.18398 0.816001C1.72798 0.272 2.36798 0 3.10398 0H5.79198C6.52798 0 7.16798 0.272 7.71198 0.816001C8.25598 1.36 8.52798 2 8.52798 2.736V3.504C8.52798 4.24 8.25598 4.88 7.71198 5.424C7.16798 5.968 6.52798 6.24 5.79198 6.24H3.10398Z" fill="white"/>
<path d="M19.0415 36C18.3055 36 17.6655 35.728 17.1215 35.184C16.5775 34.64 16.3055 34 16.3055 33.264V2.736C16.3055 2 16.5775 1.36 17.1215 0.816001C17.6655 0.272 18.3055 0 19.0415 0H21.7295C22.4655 0 23.1055 0.272 23.6495 0.816001C24.1935 1.36 24.4655 2 24.4655 2.736V33.264C24.4655 34 24.1935 34.64 23.6495 35.184C23.1055 35.728 22.4655 36 21.7295 36H19.0415Z" fill="white"/>
<path d="M34.7165 36C33.9805 36 33.3405 35.728 32.7965 35.184C32.2525 34.64 31.9805 34 31.9805 33.264V13.776C31.9805 13.04 32.2525 12.4 32.7965 11.856C33.3405 11.312 33.9805 11.04 34.7165 11.04H36.4925C37.2605 11.04 37.9005 11.312 38.4125 11.856C38.9565 12.368 39.2605 13.008 39.3245 13.776L39.3725 14.208C39.3725 14.24 39.3885 14.256 39.4205 14.256C39.4845 14.256 39.5165 14.24 39.5165 14.208C41.4045 11.776 43.5645 10.56 45.9965 10.56C47.4685 10.56 48.6365 10.832 49.5005 11.376C50.3645 11.888 51.1645 12.816 51.9005 14.16C51.9005 14.224 51.9325 14.256 51.9965 14.256L52.0925 14.16C54.3005 11.76 56.6045 10.56 59.0045 10.56C61.7245 10.56 63.6925 11.296 64.9085 12.768C66.1245 14.208 66.7325 16.672 66.7325 20.16V33.264C66.7325 34 66.4605 34.64 65.9165 35.184C65.3725 35.728 64.7325 36 63.9965 36H61.8845C61.1485 36 60.5085 35.728 59.9645 35.184C59.4205 34.64 59.1485 34 59.1485 33.264V20.64C59.1485 18.912 58.9565 17.776 58.5725 17.232C58.1885 16.656 57.4685 16.368 56.4125 16.368C55.6765 16.368 54.9565 16.672 54.2525 17.28C53.5805 17.888 53.2445 18.48 53.2445 19.056V33.264C53.2445 34 52.9725 34.64 52.4285 35.184C51.8845 35.728 51.2445 36 50.5085 36H48.3965C47.6605 36 47.0205 35.728 46.4765 35.184C45.9325 34.64 45.6605 34 45.6605 33.264V20.64C45.6605 18.912 45.4685 17.776 45.0845 17.232C44.7325 16.656 44.0285 16.368 42.9725 16.368C42.2365 16.368 41.5165 16.672 40.8125 17.28C40.1085 17.888 39.7565 18.48 39.7565 19.056V33.264C39.7565 34 39.4845 34.64 38.9405 35.184C38.3965 35.728 37.7565 36 37.0205 36H34.7165Z" fill="white"/>
<path d="M76.7446 36C76.0086 36 75.3686 35.728 74.8246 35.184C74.2806 34.64 74.0086 34 74.0086 33.264V13.776C74.0086 13.04 74.2806 12.4 74.8246 11.856C75.3686 11.312 76.0086 11.04 76.7446 11.04H79.4326C80.1686 11.04 80.8086 11.312 81.3526 11.856C81.8966 12.4 82.1686 13.04 82.1686 13.776V33.264C82.1686 34 81.8966 34.64 81.3526 35.184C80.8086 35.728 80.1686 36 79.4326 36H76.7446ZM76.7446 6.24C76.0086 6.24 75.3686 5.968 74.8246 5.424C74.2806 4.88 74.0086 4.24 74.0086 3.504V2.736C74.0086 2 74.2806 1.36 74.8246 0.816001C75.3686 0.272 76.0086 0 76.7446 0H79.4326C80.1686 0 80.8086 0.272 81.3526 0.816001C81.8966 1.36 82.1686 2 82.1686 2.736V3.504C82.1686 4.24 81.8966 4.88 81.3526 5.424C80.8086 5.968 80.1686 6.24 79.4326 6.24H76.7446Z" fill="white"/>
<path d="M90.4996 36C89.8916 36 89.4276 35.744 89.1076 35.232C88.8196 34.72 88.8356 34.192 89.1556 33.648L94.9156 23.616C95.0436 23.392 95.0436 23.168 94.9156 22.944L89.3956 13.392C89.0756 12.848 89.0596 12.32 89.3476 11.808C89.6676 11.296 90.1316 11.04 90.7396 11.04H93.6196C94.4196 11.04 95.1716 11.28 95.8756 11.76C96.5796 12.208 97.1076 12.8 97.4596 13.536L100.148 19.344C100.148 19.376 100.164 19.392 100.196 19.392C100.228 19.392 100.244 19.376 100.244 19.344L102.932 13.536C103.252 12.8 103.764 12.208 104.468 11.76C105.172 11.28 105.94 11.04 106.772 11.04H109.46C110.036 11.04 110.468 11.296 110.756 11.808C111.076 12.32 111.092 12.848 110.804 13.392L105.284 22.944C105.124 23.168 105.124 23.392 105.284 23.616L111.044 33.648C111.332 34.192 111.316 34.72 110.996 35.232C110.708 35.744 110.276 36 109.7 36H106.82C105.988 36 105.204 35.776 104.468 35.328C103.764 34.88 103.252 34.288 102.932 33.552L100.052 27.312C100.052 27.28 100.036 27.264 100.004 27.264C99.9716 27.264 99.9556 27.28 99.9556 27.312L97.0756 33.552C96.7236 34.288 96.1796 34.88 95.4436 35.328C94.7396 35.776 93.9876 36 93.1876 36H90.4996Z" fill="white"/>
</svg>
