<?xml version="1.0" encoding="UTF-8"?>
<!DOCTYPE svg PUBLIC "-//W3C//DTD SVG 1.1//EN" "http://www.w3.org/Graphics/SVG/1.1/DTD/svg11.dtd">
<!-- Creator: CorelDRAW 2019 (64-Bit) -->
<svg xmlns="http://www.w3.org/2000/svg" xml:space="preserve" width="105mm" height="30mm" version="1.1" style="shape-rendering:geometricPrecision; text-rendering:geometricPrecision; image-rendering:optimizeQuality; fill-rule:evenodd; clip-rule:evenodd"
viewBox="0 0 10500 3000"
 xmlns:xlink="http://www.w3.org/1999/xlink"
 xmlns:xodm="http://www.corel.com/coreldraw/odm/2003">
 <defs>
  <style type="text/css">
   <![CDATA[
    .str0 {stroke:#2B2A29;stroke-width:7.62;stroke-miterlimit:22.9256}
    .fil0 {fill:#2B2A29}
    .fil4 {fill:#ED6F9D}
    .fil3 {fill:#78B833}
    .fil5 {fill:#FEFEFE;fill-rule:nonzero}
    .fil6 {fill:#2B2A29;fill-rule:nonzero}
    .fil2 {fill:#ED6F9D;fill-rule:nonzero}
    .fil1 {fill:#78B833;fill-rule:nonzero}
   ]]>
  </style>
 </defs>
 <g id="Слой_x0020_1">
  <metadata id="CorelCorpID_0Corel-Layer"/>
  <rect class="fil0 str0" x="46.43" y="975.54" width="10345.57" height="1511.18"/>
  <g id="_1609733646544">
   <path class="fil1" d="M5422.69 952.91c-93.93,121.43 -519.06,1179.81 -36.81,1199.69 63.87,2.62 144.17,-21.13 241.08,-68.47 -126.41,74.88 -457.05,253.47 -622.22,93.76 -64.7,-62.57 -103.76,-162.32 -117.15,-299.29 -13.4,-136.97 3.27,-309.44 50.05,-517.41l-404.39 694.95 1.01 7.61 -74.16 119.22 -224.66 -187.69c-6.52,-49.05 -8.27,-102.29 -6.84,-159.79 1.21,-49.01 3.79,-106.95 9.31,-173.75 5.53,-66.78 16.43,-138.22 32.71,-214.3l-479.52 725.36 -214.69 -167.46c-30.95,-382.36 47.33,-879.98 329.36,-1200.27l288.69 150.31c-59.02,79.49 -114.27,165.34 -163.6,258.72 -42.7,80.78 -81.85,174.14 -119.51,278.98 -37.66,104.85 -58.24,216.43 -61.71,334.8 239.57,-335.43 449.53,-699.48 724.79,-1019.61l292.29 154.72c-191.74,255.1 -310.39,554.17 -345.23,842.07l565.38 -946.04c4.72,-18.6 10.88,-35.51 18.45,-50.75l317.37 144.64z"/>
   <path class="fil2" d="M2911.43 957.8c-278.6,513 -263.87,1017.48 -258.94,1214.46 -80.5,-43.47 -91.53,-44.81 -231.89,-159.41 -2.29,-219.41 -53.14,-725.99 181.4,-1193.05l309.43 138z"/>
   <path class="fil2" d="M3201.88 480.28c-78.72,85.8 -144.06,173.79 -198.12,261.57l-319.35 -161.76c44.84,-85.56 99.76,-177.65 167.49,-277.1l349.98 177.29z"/>
   <path class="fil2" d="M3840.79 275.14c-434.53,611.47 -572.6,1236.08 -691.1,1887.39 -121.66,-86.63 -156.37,-127.79 -245.93,-225.49 53.96,-430.93 259.11,-1339.69 619.86,-1826.01l317.17 164.11z"/>
   <path class="fil3" d="M6503.31 1199.74c165.59,-193.02 363.3,-326.25 657.83,-455.15 25.12,560.92 -183.13,666.37 -451.33,809.9 189.05,-187.9 233.65,-312.12 290.25,-500.07 -107.54,63.49 -213.18,123.61 -300.13,210.39 -56.04,55.93 -105.71,108.32 -151.44,161.2 146.48,570.4 568.44,1258.07 1407.87,1167.99 -927.95,170.61 -1334.75,-411.03 -1570.71,-923.58 -120.53,168.93 -226.98,332.93 -353.9,549.38l-113.89 -89.3c134.51,-231.28 219.09,-394.36 382.84,-659.65 -58.04,-217.19 -68.52,-390.7 -76.2,-636.11l262.57 140.14c-0.58,66.65 4.68,142.81 16.24,224.86z"/>
   <path class="fil4" d="M7061.81 1507.93c276.54,53.7 827.64,165.21 1001.13,1032.3 -847.01,7.11 -1109.45,-330.47 -1411.65,-928.96 306.34,325.4 477.42,546.99 981.79,640.95 -21.9,-120.17 -296.56,-570.17 -571.27,-744.29z"/>
   <path class="fil1" d="M6016.65 957.8c-278.61,513 -263.87,1017.48 -258.95,1214.46 -80.49,-43.47 -91.52,-44.81 -231.89,-159.41 -2.28,-219.41 -53.13,-725.99 181.41,-1193.05l309.43 138z"/>
   <path class="fil1" d="M6307.1 480.28c-78.72,85.8 -144.06,173.79 -198.12,261.57l-319.36 -161.76c44.84,-85.56 99.77,-177.65 167.5,-277.1l349.98 177.29z"/>
   <path class="fil5" d="M2885.49 924.71l-1.55 2.8c-36.61,65.87 -68.34,134.46 -95.73,204.2 -27.54,70.1 -50.57,140.84 -69.68,210.76 -98.83,361.31 -97.86,709.15 -80.75,843.46l-50.27 6.36c-17.57,-137.88 -18.74,-494.32 82.14,-863.13 19.78,-72.3 43.35,-144.83 71.27,-215.93 28.07,-71.46 60.77,-142.08 98.71,-210.36l1.56 -2.8 44.3 24.64z"/>
   <path class="fil5" d="M3825.88 230.58c-195.85,289.51 -339.16,579.62 -445.9,890.9 -106.87,311.69 -177.1,644.65 -226.68,1019.51l-50.27 -5.68c50.04,-378.35 120.97,-714.57 228.96,-1029.51 108.14,-315.37 253.45,-609.45 452.14,-903.16l41.75 27.94z"/>
   <path class="fil5" d="M4172.4 881.32l-1.84 2.74c-355.84,531.69 -365.86,1001.7 -370.47,1218.79 -0.57,26.32 -1.05,48.89 -2.19,69.57l-50.8 3.63c0.93,-17.01 1.44,-40.51 2.02,-67.88 4.72,-222.01 14.97,-702.66 380.13,-1248.28l1.84 -2.74 41.31 24.17z"/>
   <path class="fil5" d="M4862.35 885.25l-1.84 2.74c-355.84,531.69 -365.86,1001.7 -370.47,1218.78 -0.56,26.33 -1.05,48.9 -2.19,69.58l-50.8 3.63c0.93,-17.01 1.44,-40.51 2.02,-67.89 4.73,-222 14.97,-702.65 380.14,-1248.28l1.83 -2.74 41.31 24.18z"/>
   <path class="fil5" d="M5422.36 879.83c-78.52,95.4 -229.78,492.82 -267.22,822.59 -12.48,109.89 -12.11,211.57 8.2,290.75 19.27,75.2 56.6,129.62 118.27,149.91 49.01,16.13 114.55,11.57 200.09,-19.95l12.21 47.22c-97.52,35.94 -174.27,40.46 -233.68,20.91 -77.49,-25.49 -123.55,-90.63 -146.41,-179.84 -21.86,-85.23 -22.46,-192.86 -9.36,-308.29 38.51,-339.09 197.31,-751.71 280.15,-852.35l37.75 29.05z"/>
   <path class="fil5" d="M3183.89 444.1l-0.05 0.06 0 0.1c-10.15,11.55 -19.56,22.58 -28.13,33.01 -9.24,11.26 -18.79,23.28 -28.58,36 -49.15,63.87 -98.81,139.01 -141.13,218.93l-44.91 -23.64c43.69,-82.51 95.03,-160.18 145.9,-226.29 9.67,-12.56 19.56,-24.98 29.58,-37.19 10.7,-13.02 20.43,-24.51 29.12,-34.4l0.05 0.05 38.15 33.37z"/>
   <path class="fil5" d="M5990.71 924.71c-2.33,4.17 -5.52,9.99 -9.4,17.16 -244.24,451.18 -240.05,993.87 -238.31,1220.52l0.19 26.62 -50.66 0.2 -0.19 -26.62c-1.78,-230.49 -6.02,-782.41 244.26,-1244.76 2.43,-4.47 5.66,-10.34 9.81,-17.76l44.3 24.64z"/>
   <path class="fil5" d="M6289.11 444.1l-0.05 0.06 0 0.1c-10.15,11.55 -19.56,22.58 -28.13,33.01 -9.24,11.26 -18.79,23.28 -28.58,36 -49.16,63.87 -98.81,139.01 -141.13,218.93l-44.91 -23.64c43.69,-82.51 95.03,-160.18 145.9,-226.29 9.67,-12.56 19.56,-24.98 29.58,-37.19 10.7,-13.02 20.43,-24.51 29.12,-34.4l0.05 0.05 38.15 33.37z"/>
   <path class="fil5" d="M7018.37 744.92c43.76,275.96 13.65,451.3 -47.59,571.14 -62.01,121.32 -154.28,184.27 -234.95,236.99l-28.07 -42.46c75.53,-49.36 161.85,-108.17 217.96,-217.96 56.86,-111.26 84.44,-276.47 42.63,-540.16l50.02 -7.55z"/>
   <path class="fil5" d="M6458.68 948.01c-2.05,54.98 -0.19,116.77 5.92,183.28 25.38,275.94 123.86,632.85 320.89,924.62 195.52,289.52 488.56,514.48 904.11,529.96 54.2,2.01 110.47,0.5 168.8,-4.87l4.57 50.46c-60.63,5.57 -119.01,7.16 -175.16,5.07 -434.81,-16.19 -740.76,-250.58 -944.44,-552.21 -202.17,-299.36 -303.19,-665.46 -329.23,-948.46 -6.32,-68.79 -8.24,-132.73 -6.12,-189.63l50.66 1.78z"/>
   <path class="fil5" d="M8107.36 2396.37c-383.98,28.7 -649.85,-30.11 -867.43,-159.58 -216.76,-128.98 -382.99,-326.74 -569.71,-577.46l41.6 -25.11c182.58,245.15 344.48,438.14 552.3,561.8 206.99,123.17 462.22,178.94 833.43,151.2l9.81 49.15z"/>
  </g>
  <path class="fil6" d="M2474.95 2731.35c0,-23.83 7.41,-42.56 22.24,-56.17 14.83,-13.61 35.99,-20.42 63.47,-20.42 9.23,0 18.54,1.22 27.89,3.64 9.36,2.44 17.7,5.48 24.99,9.12l-10.95 23.71c-4.61,-2.68 -10.33,-5.17 -17.14,-7.47 -6.81,-2.31 -13.86,-3.47 -21.15,-3.47 -5.1,0 -9.97,0.97 -14.59,2.91 -4.61,1.95 -8.69,4.93 -12.22,8.95 -3.53,4 -6.32,9.3 -8.39,15.86 -2.07,6.56 -3.1,14.34 -3.1,23.34l0 3.65 56.54 0 0 25.53 -56.54 0 0 156.83 -51.05 0 0 -156.83 -34.66 0 0 -25.53 34.66 0 0 -3.65zm332.91 169.6c7.78,0 15.08,-1.46 21.88,-4.37 6.81,-2.93 12.76,-7.49 17.87,-13.68 5.11,-6.2 9.18,-14.29 12.22,-24.25 3.04,-9.98 4.56,-22.02 4.56,-36.12 0,-14.1 -1.52,-26.13 -4.56,-36.1 -3.04,-9.98 -7.11,-18.05 -12.22,-24.27 -5.11,-6.19 -11.06,-10.75 -17.87,-13.66 -6.8,-2.93 -14.1,-4.39 -21.88,-4.39 -7.78,0 -15.09,1.46 -21.89,4.39 -6.81,2.91 -12.76,7.47 -17.86,13.66 -5.12,6.22 -9.19,14.29 -12.22,24.27 -3.05,9.97 -4.56,22 -4.56,36.1 0,14.1 1.51,26.14 4.56,36.12 3.03,9.96 7.1,18.05 12.22,24.25 5.1,6.19 11.05,10.75 17.86,13.68 6.8,2.91 14.11,4.37 21.89,4.37zm0 -180.55c16.28,0 31.3,2.26 45.04,6.76 13.73,4.49 25.46,11.07 35.19,19.69 9.73,8.63 17.33,19.33 22.81,32.09 5.46,12.78 8.2,27.3 8.2,43.59 0,16.54 -2.74,31.12 -8.2,43.78 -5.48,12.64 -13.08,23.27 -22.81,31.91 -9.73,8.63 -21.46,15.19 -35.19,19.68 -13.74,4.51 -28.76,6.76 -45.04,6.76 -16.53,0 -31.61,-2.25 -45.24,-6.76 -13.61,-4.49 -25.27,-11.05 -35,-19.68 -9.73,-8.64 -17.32,-19.27 -22.8,-31.91 -5.47,-12.66 -8.2,-27.24 -8.2,-43.78 0,-16.29 2.73,-30.81 8.2,-43.59 5.48,-12.76 13.07,-23.46 22.8,-32.09 9.73,-8.62 21.39,-15.2 35,-19.69 13.63,-4.5 28.71,-6.76 45.24,-6.76zm349.33 180.55c7.78,0 15.08,-1.46 21.88,-4.37 6.81,-2.93 12.76,-7.49 17.87,-13.68 5.11,-6.2 9.18,-14.29 12.22,-24.25 3.04,-9.98 4.56,-22.02 4.56,-36.12 0,-14.1 -1.52,-26.13 -4.56,-36.1 -3.04,-9.98 -7.11,-18.05 -12.22,-24.27 -5.11,-6.19 -11.06,-10.75 -17.87,-13.66 -6.8,-2.93 -14.1,-4.39 -21.88,-4.39 -7.78,0 -15.09,1.46 -21.89,4.39 -6.81,2.91 -12.76,7.47 -17.86,13.66 -5.12,6.22 -9.19,14.29 -12.22,24.27 -3.05,9.97 -4.56,22 -4.56,36.1 0,14.1 1.51,26.14 4.56,36.12 3.03,9.96 7.1,18.05 12.22,24.25 5.1,6.19 11.05,10.75 17.86,13.68 6.8,2.91 14.11,4.37 21.89,4.37zm0 -180.55c16.28,0 31.3,2.26 45.04,6.76 13.73,4.49 25.46,11.07 35.19,19.69 9.73,8.63 17.33,19.33 22.81,32.09 5.46,12.78 8.2,27.3 8.2,43.59 0,16.54 -2.74,31.12 -8.2,43.78 -5.48,12.64 -13.08,23.27 -22.81,31.91 -9.73,8.63 -21.46,15.19 -35.19,19.68 -13.74,4.51 -28.76,6.76 -45.04,6.76 -16.53,0 -31.61,-2.25 -45.23,-6.76 -13.62,-4.49 -25.28,-11.05 -35.01,-19.68 -9.73,-8.64 -17.32,-19.27 -22.8,-31.91 -5.47,-12.66 -8.2,-27.24 -8.2,-43.78 0,-16.29 2.73,-30.81 8.2,-43.59 5.48,-12.76 13.07,-23.46 22.8,-32.09 9.73,-8.62 21.39,-15.2 35.01,-19.69 13.62,-4.5 28.7,-6.76 45.23,-6.76zm394.92 171.43l0 -138.6 -45.59 0c-8.27,0 -15.87,1.27 -22.8,3.83 -6.93,2.56 -12.88,6.63 -17.87,12.22 -4.98,5.59 -8.88,12.76 -11.67,21.52 -2.8,8.75 -4.19,19.34 -4.19,31.73 0,12.41 1.39,22.98 4.19,31.73 2.79,8.76 6.69,15.93 11.67,21.52 4.99,5.6 10.94,9.67 17.87,12.22 6.93,2.56 14.53,3.83 22.8,3.83l45.59 0zm-45.59 25.53c-16.78,0 -32.04,-2.19 -45.78,-6.56 -13.73,-4.38 -25.46,-10.7 -35.19,-18.97 -9.73,-8.27 -17.2,-18.23 -22.44,-29.91 -5.22,-11.66 -7.83,-24.8 -7.83,-39.39 0,-14.59 2.61,-27.71 7.83,-39.39 5.24,-11.67 12.71,-21.64 22.44,-29.91 9.73,-8.27 21.46,-14.58 35.19,-18.96 13.74,-4.38 29,-6.57 45.78,-6.57l45.59 0 0 -65.65 51.06 0 0 255.31 -96.65 0zm422.28 0l-51.07 0 0 -186.01 51.07 0 0 186.01zm1.83 -235.25c0,7.29 -2.5,13.68 -7.48,19.15 -4.98,5.48 -11.61,8.21 -19.88,8.21 -8.27,0 -14.89,-2.73 -19.88,-8.21 -4.98,-5.47 -7.47,-11.86 -7.47,-19.15 0,-7.3 2.49,-13.67 7.47,-19.15 4.99,-5.47 11.61,-8.2 19.88,-8.2 8.02,0 14.59,2.73 19.7,8.2 5.1,5.48 7.66,11.85 7.66,19.15zm345.68 235.25l-51.07 0 0 -114.88c0,-17.51 -4.37,-30.1 -13.13,-37.76 -8.75,-7.66 -21.39,-11.49 -37.93,-11.49l-47.41 0 0 164.13 -51.06 0 0 -189.66 98.47 0c34.78,0 60.49,6.26 77.15,18.79 16.64,12.52 24.98,31.18 24.98,55.99l0 114.88zm245.39 -164.13c-17.51,0 -31.31,5.42 -41.41,16.24 -10.08,10.81 -15.13,27.3 -15.13,49.42 0,22.13 5.05,38.59 15.13,49.42 10.1,10.81 23.9,16.22 41.41,16.22l45.59 0 0 -131.3 -45.59 0zm96.64 160.48c0,11.43 -2.19,21.83 -6.56,31.19 -4.37,9.37 -10.88,17.44 -19.51,24.25 -8.64,6.81 -19.46,12.04 -32.47,15.68 -13,3.66 -28.14,5.48 -45.41,5.48 -5.83,0 -12.08,-0.43 -18.78,-1.28 -6.69,-0.85 -13.43,-2.18 -20.23,-4.01 -6.82,-1.82 -13.44,-4.14 -19.88,-6.92 -6.46,-2.81 -12.34,-6.03 -17.7,-9.68l12.77 -21.88c8.27,5.6 17.62,10.03 28.08,13.31 10.46,3.29 21.15,4.93 32.1,4.93 18.24,0 32.22,-4.14 41.95,-12.41 9.72,-8.25 14.59,-21.15 14.59,-38.66l0 -3.64 -45.59 0c-16.78,0 -32.05,-2.19 -45.78,-6.56 -13.74,-4.39 -25.47,-10.59 -35.2,-18.61 -9.73,-8.02 -17.2,-17.63 -22.43,-28.81 -5.23,-11.19 -7.84,-23.59 -7.84,-37.2 0,-13.63 2.61,-26.02 7.84,-37.21 5.23,-11.18 12.7,-20.79 22.43,-28.81 9.73,-8.03 21.46,-14.22 35.2,-18.6 13.73,-4.38 29,-6.57 45.78,-6.57l96.64 0 0 186.01zm289.16 -160.48l-43.76 0c-16.54,0 -29.18,4.44 -37.94,13.32 -8.75,8.88 -13.13,22.07 -13.13,39.57l0 111.24 -51.06 0 0 -111.24c0,-24.79 7.83,-44.06 23.52,-57.81 15.68,-13.74 38.24,-20.61 67.66,-20.61l54.71 0 0 25.53zm221.68 145.89c11.91,0 23.03,-2.05 33.37,-6.2 10.33,-4.12 20.49,-9.97 30.45,-17.51l14.6 21.9c-4.63,4.13 -10.04,7.9 -16.24,11.3 -6.2,3.41 -12.88,6.26 -20.05,8.58 -7.18,2.3 -14.66,4.12 -22.44,5.46 -7.78,1.34 -15.56,2.01 -23.34,2.01 -17.27,0 -33.01,-2.25 -47.23,-6.76 -14.24,-4.49 -26.32,-11.05 -36.29,-19.68 -9.98,-8.64 -17.69,-19.27 -23.17,-31.91 -5.47,-12.66 -8.2,-27.24 -8.2,-43.78 0,-16.29 2.61,-30.81 7.83,-43.59 5.24,-12.76 12.53,-23.46 21.9,-32.09 9.35,-8.62 20.47,-15.2 33.37,-19.69 12.88,-4.5 27.1,-6.76 42.67,-6.76 14.58,0 28.33,2.2 41.21,6.58 12.89,4.37 24.08,10.76 33.56,19.15 9.48,8.37 17.01,18.54 22.62,30.45 5.58,11.92 8.39,25.41 8.39,40.48l0 25.54 -155.74 0c2.9,20.17 9.9,34.64 20.96,43.4 11.07,8.75 24.99,13.12 41.77,13.12zm-12.77 -155.01c-7.05,0 -13.62,1.34 -19.69,4.02 -6.08,2.67 -11.37,6.93 -15.88,12.76 -4.49,5.83 -8.14,13.37 -10.93,22.61 -2.8,9.25 -4.32,20.44 -4.56,33.56l102.13 0c0,-12.64 -1.47,-23.58 -4.39,-32.83 -2.91,-9.24 -6.74,-16.83 -11.49,-22.78 -4.73,-5.97 -10.2,-10.34 -16.41,-13.14 -6.2,-2.79 -12.46,-4.2 -18.78,-4.2zm389.46 147.72l0 -138.6 -45.59 0c-8.27,0 -15.87,1.27 -22.8,3.83 -6.93,2.56 -12.88,6.63 -17.87,12.22 -4.98,5.59 -8.88,12.76 -11.67,21.52 -2.8,8.75 -4.19,19.34 -4.19,31.73 0,12.41 1.39,22.98 4.19,31.73 2.79,8.76 6.69,15.93 11.67,21.52 4.99,5.6 10.94,9.67 17.87,12.22 6.93,2.56 14.53,3.83 22.8,3.83l45.59 0zm-45.59 25.53c-16.78,0 -32.04,-2.19 -45.78,-6.56 -13.73,-4.38 -25.46,-10.7 -35.19,-18.97 -9.73,-8.27 -17.2,-18.23 -22.44,-29.91 -5.22,-11.66 -7.83,-24.8 -7.83,-39.39 0,-14.59 2.61,-27.71 7.83,-39.39 5.24,-11.67 12.71,-21.64 22.44,-29.91 9.73,-8.27 21.46,-14.58 35.19,-18.96 13.74,-4.38 29,-6.57 45.78,-6.57l45.59 0 0 -65.65 51.06 0 0 255.31 -96.65 0zm294.62 0l-51.07 0 0 -186.01 51.07 0 0 186.01zm1.83 -235.25c0,7.29 -2.5,13.68 -7.48,19.15 -4.98,5.48 -11.61,8.21 -19.88,8.21 -8.27,0 -14.89,-2.73 -19.88,-8.21 -4.98,-5.47 -7.47,-11.86 -7.47,-19.15 0,-7.3 2.49,-13.67 7.47,-19.15 4.99,-5.47 11.61,-8.2 19.88,-8.2 8.02,0 14.59,2.73 19.7,8.2 5.1,5.48 7.66,11.85 7.66,19.15zm254.5 217.01c11.91,0 23.03,-2.05 33.37,-6.2 10.32,-4.12 20.48,-9.97 30.44,-17.51l14.61 21.9c-4.63,4.13 -10.05,7.9 -16.24,11.3 -6.2,3.41 -12.89,6.26 -20.06,8.58 -7.17,2.3 -14.65,4.12 -22.43,5.46 -7.78,1.34 -15.57,2.01 -23.35,2.01 -17.26,0 -33,-2.25 -47.22,-6.76 -14.24,-4.49 -26.32,-11.05 -36.3,-19.68 -9.97,-8.64 -17.68,-19.27 -23.16,-31.91 -5.47,-12.66 -8.2,-27.24 -8.2,-43.78 0,-16.29 2.61,-30.81 7.83,-43.59 5.24,-12.76 12.53,-23.46 21.9,-32.09 9.35,-8.62 20.47,-15.2 33.37,-19.69 12.88,-4.5 27.1,-6.76 42.66,-6.76 14.59,0 28.34,2.2 41.22,6.58 12.88,4.37 24.08,10.76 33.56,19.15 9.47,8.37 17.01,18.54 22.61,30.45 5.59,11.92 8.39,25.41 8.39,40.48l0 25.54 -155.74 0c2.91,20.17 9.91,34.64 20.96,43.4 11.07,8.75 25,13.12 41.78,13.12zm-12.78 -155.01c-7.05,0 -13.61,1.34 -19.69,4.02 -6.07,2.67 -11.36,6.93 -15.87,12.76 -4.49,5.83 -8.15,13.37 -10.93,22.61 -2.8,9.25 -4.32,20.44 -4.56,33.56l102.12 0c0,-12.64 -1.46,-23.58 -4.38,-32.83 -2.91,-9.24 -6.74,-16.83 -11.49,-22.78 -4.74,-5.97 -10.2,-10.34 -16.41,-13.14 -6.2,-2.79 -12.47,-4.2 -18.79,-4.2zm442.35 173.25l-51.07 0 0 -114.88c0,-17.51 -4.37,-30.1 -13.12,-37.76 -8.76,-7.66 -21.4,-11.49 -37.93,-11.49l-47.42 0 0 164.13 -51.06 0 0 -189.66 98.48 0c34.77,0 60.48,6.26 77.14,18.79 16.65,12.52 24.98,31.18 24.98,55.99l0 114.88zm152.39 -164.13l-34.66 0 0 -25.53 34.66 0 0 -58.35 51.05 0 0 58.35 56.54 0 0 25.53 -56.54 0 0 94.84c0,9.24 1.03,17.07 3.1,23.51 2.07,6.46 4.86,11.68 8.39,15.69 3.53,4.02 7.61,6.99 12.22,8.94 4.62,1.94 9.49,2.91 14.59,2.91 7.29,0 14.34,-1.15 21.15,-3.46 6.81,-2.3 12.53,-4.81 17.15,-7.47l10.94 23.71c-7.29,3.64 -15.63,6.68 -24.99,9.12 -9.35,2.42 -18.66,3.64 -27.89,3.64 -27.48,0 -48.63,-6.81 -63.47,-20.42 -14.83,-13.63 -22.24,-32.34 -22.24,-56.17l0 -94.84zm298.26 14.59c0,5.6 2.49,10.7 7.48,15.32 4.98,4.63 13.42,8.63 25.35,12.04l56.53 16.42c17.5,5.1 31.01,12.03 40.48,20.78 9.48,8.76 14.23,20.06 14.23,33.93 0,8.74 -1.82,16.71 -5.48,23.88 -3.64,7.17 -9.6,13.32 -17.86,18.42 -8.27,5.1 -18.97,9.05 -32.1,11.85 -13.14,2.8 -29.31,4.2 -48.51,4.2 -9.97,0 -19.76,-0.73 -29.36,-2.2 -9.61,-1.44 -18.72,-3.46 -27.35,-6 -8.64,-2.56 -16.48,-5.48 -23.54,-8.76 -7.05,-3.29 -13.12,-6.75 -18.22,-10.39l14.58 -21.9c10.21,6.34 22.18,11.86 35.93,16.61 13.74,4.73 29.72,7.1 47.96,7.1 18.24,0 31,-2.42 38.3,-7.29 7.29,-4.86 10.94,-10.94 10.94,-18.23 0,-5.6 -2.55,-10.64 -7.66,-15.14 -5.11,-4.49 -14.11,-8.57 -26.99,-12.22l-56.54 -16.42c-15.56,-4.61 -28.27,-11.24 -38.11,-19.87 -9.85,-8.64 -14.77,-20.25 -14.77,-34.84 0,-7.78 1.76,-15 5.29,-21.69 3.52,-6.7 9.05,-12.46 16.59,-17.33 7.54,-4.86 17.14,-8.69 28.82,-11.49 11.67,-2.79 25.77,-4.2 42.3,-4.2 20.19,0 38.49,2.75 54.9,8.22 16.4,5.46 29.72,11.85 39.94,19.15l-14.59 21.88c-9.97,-6.32 -21.27,-11.86 -33.93,-16.59 -12.64,-4.75 -28.08,-7.12 -46.32,-7.12 -12.88,0 -22.49,2.07 -28.81,6.2 -6.32,4.14 -9.48,9.36 -9.48,15.68z"/>
 </g>
</svg>
