<svg width="105" height="30" viewBox="0 0 105 30" fill="none" xmlns="http://www.w3.org/2000/svg">
<path d="M103.92 9.7554H0.464355V24.8672H103.92V9.7554Z" fill="#2B2A29" stroke="#2B2A29" stroke-width="0.0762" stroke-miterlimit="22.9256"/>
<path d="M54.2268 9.52909C53.2875 10.7434 49.0362 21.3272 53.8587 21.526C54.4974 21.5522 55.3004 21.3147 56.2695 20.8413C55.0054 21.5901 51.699 23.376 50.0473 21.7789C49.4003 21.1532 49.0097 20.1557 48.8758 18.786C48.7418 17.4163 48.9085 15.6916 49.3763 13.6119L45.3324 20.5614L45.3425 20.6375L44.6009 21.8297L42.3543 19.9528C42.2891 19.4623 42.2716 18.9299 42.2859 18.3549C42.298 17.8648 42.3238 17.2854 42.379 16.6174C42.4343 15.9496 42.5433 15.2352 42.7061 14.4744L37.9109 21.728L35.764 20.0534C35.4545 16.2298 36.2373 11.2536 39.0576 8.05069L41.9445 9.55379C41.3543 10.3487 40.8018 11.2072 40.3085 12.141C39.8815 12.9488 39.49 13.8824 39.1134 14.9308C38.7368 15.9793 38.531 17.0951 38.4963 18.2788C40.892 14.9245 42.9916 11.284 45.7442 8.08269L48.6671 9.62989C46.7497 12.1809 45.5632 15.1716 45.2148 18.0506L50.8686 8.59019C50.9158 8.40419 50.9774 8.23509 51.0531 8.08269L54.2268 9.52909V9.52909Z" fill="#78B833"/>
<path d="M29.1142 9.578C26.3282 14.708 26.4755 19.7528 26.5248 21.7226C25.7198 21.2879 25.6095 21.2745 24.2059 20.1285C24.183 17.9344 23.6745 12.8686 26.0199 8.198L29.1142 9.578V9.578Z" fill="#ED6F9D"/>
<path d="M32.0184 4.80278C31.2312 5.66078 30.5779 6.54068 30.0373 7.41848L26.8438 5.80088C27.2921 4.94528 27.8413 4.02438 28.5186 3.02988L32.0184 4.80278V4.80278Z" fill="#ED6F9D"/>
<path d="M38.4079 2.75139C34.0626 8.86609 32.6819 15.1122 31.4969 21.6253C30.2803 20.759 29.9332 20.3474 29.0376 19.3704C29.5772 15.0611 31.6287 5.97349 35.2362 1.11029L38.4079 2.75139V2.75139Z" fill="#ED6F9D"/>
<path fill-rule="evenodd" clip-rule="evenodd" d="M65.0327 11.9974C66.6886 10.0672 68.6657 8.73489 71.611 7.44589C71.8622 13.0551 69.7797 14.1096 67.0977 15.5449C68.9882 13.6659 69.4342 12.4237 70.0002 10.5442C68.9248 11.1791 67.8684 11.7803 66.9989 12.6481C66.4385 13.2074 65.9418 13.7313 65.4845 14.2601C66.9493 19.9641 71.1689 26.8408 79.5632 25.94C70.2837 27.6461 66.2157 21.8297 63.8561 16.7042C62.6508 18.3935 61.5863 20.0335 60.3171 22.198L59.1782 21.305C60.5233 18.9922 61.3691 17.3614 63.0066 14.7085C62.4262 12.5366 62.3214 10.8015 62.2446 8.34739L64.8703 9.74879C64.8645 10.4153 64.9171 11.1769 65.0327 11.9974V11.9974Z" fill="#78B833"/>
<path fill-rule="evenodd" clip-rule="evenodd" d="M70.6179 15.0793C73.3833 15.6163 78.8943 16.7314 80.6292 25.4023C72.1591 25.4734 69.5347 22.0976 66.5127 16.1127C69.5761 19.3667 71.2869 21.5826 76.3306 22.5222C76.1116 21.3205 73.365 16.8205 70.6179 15.0793V15.0793Z" fill="#ED6F9D"/>
<path d="M60.1664 9.578C57.3803 14.708 57.5277 19.7528 57.5769 21.7226C56.772 21.2879 56.6617 21.2745 55.258 20.1285C55.2352 17.9344 54.7267 12.8686 57.0721 8.198L60.1664 9.578V9.578Z" fill="#78B833"/>
<path d="M63.0708 4.80278C62.2836 5.66078 61.6302 6.54068 61.0896 7.41848L57.896 5.80088C58.3444 4.94528 58.8937 4.02438 59.571 3.02988L63.0708 4.80278V4.80278Z" fill="#78B833"/>
<path d="M28.8547 9.2471L28.8392 9.2751C28.4731 9.9338 28.1558 10.6197 27.8819 11.3171C27.6065 12.0181 27.3762 12.7255 27.1851 13.4247C26.1968 17.0378 26.2065 20.5162 26.3776 21.8593L25.8749 21.9229C25.6992 20.5441 25.6875 16.9797 26.6963 13.2916C26.8941 12.5686 27.1298 11.8433 27.409 11.1323C27.6897 10.4177 28.0167 9.7115 28.3961 9.0287L28.4117 9.0007L28.8547 9.2471V9.2471Z" fill="#FEFEFE"/>
<path d="M38.2588 2.3058C36.3003 5.2009 34.8672 8.102 33.7998 11.2148C32.7311 14.3317 32.0288 17.6613 31.533 21.4099L31.0303 21.3531C31.5307 17.5696 32.24 14.2074 33.3199 11.058C34.4013 7.9043 35.8544 4.9635 37.8413 2.0264L38.2588 2.3058V2.3058Z" fill="#FEFEFE"/>
<path d="M41.7237 8.8132L41.7053 8.8406C38.1469 14.1575 38.0467 18.8576 38.0006 21.0285C37.9949 21.2917 37.9901 21.5174 37.9787 21.7242L37.4707 21.7605C37.48 21.5904 37.4851 21.3554 37.4909 21.0817C37.5381 18.8616 37.6406 14.0551 41.2922 8.5989L41.3106 8.5715L41.7237 8.8132Z" fill="#FEFEFE"/>
<path d="M48.6231 8.85249L48.6047 8.87989C45.0463 14.1968 44.9461 18.8969 44.9 21.0677C44.8944 21.331 44.8895 21.5567 44.8781 21.7635L44.3701 21.7998C44.3794 21.6297 44.3845 21.3947 44.3903 21.1209C44.4376 18.9009 44.54 14.0944 48.1917 8.63809L48.21 8.61069L48.6231 8.85249V8.85249Z" fill="#FEFEFE"/>
<path d="M54.2235 8.79828C53.4383 9.75228 51.9257 13.7265 51.5513 17.0242C51.4265 18.1231 51.4302 19.1399 51.6333 19.9317C51.826 20.6837 52.1993 21.2279 52.816 21.4308C53.3061 21.5921 53.9615 21.5465 54.8169 21.2313L54.939 21.7035C53.9638 22.0629 53.1963 22.1081 52.6022 21.9126C51.8273 21.6577 51.3667 21.0063 51.1381 20.1142C50.9195 19.2619 50.9135 18.1856 51.0445 17.0313C51.4296 13.6404 53.0176 9.51418 53.846 8.50778L54.2235 8.79828V8.79828Z" fill="#FEFEFE"/>
<path d="M31.8386 4.44098L31.8381 4.44158V4.44258C31.7366 4.55808 31.6425 4.66838 31.5568 4.77268C31.4644 4.88528 31.3689 5.00548 31.271 5.13268C30.7795 5.77138 30.2829 6.52278 29.8597 7.32198L29.4106 7.08558C29.8475 6.26048 30.3609 5.48378 30.8696 4.82268C30.9663 4.69708 31.0652 4.57288 31.1654 4.45078C31.2724 4.32058 31.3697 4.20568 31.4566 4.10678L31.4571 4.10728L31.8386 4.44098V4.44098Z" fill="#FEFEFE"/>
<path d="M59.9072 9.2471C59.8839 9.2888 59.852 9.347 59.8132 9.4187C57.3708 13.9305 57.4127 19.3574 57.4301 21.6239L57.432 21.8901L56.9254 21.8921L56.9235 21.6259C56.9057 19.321 56.8633 13.8018 59.3661 9.1783C59.3904 9.1336 59.4227 9.0749 59.4642 9.0007L59.9072 9.2471V9.2471Z" fill="#FEFEFE"/>
<path d="M62.8909 4.44098L62.8904 4.44158V4.44258C62.7889 4.55808 62.6948 4.66838 62.6091 4.77268C62.5167 4.88528 62.4212 5.00548 62.3233 5.13268C61.8317 5.77138 61.3352 6.52278 60.912 7.32198L60.4629 7.08558C60.8998 6.26048 61.4132 5.48378 61.9219 4.82268C62.0186 4.69708 62.1175 4.57288 62.2177 4.45078C62.3247 4.32058 62.422 4.20568 62.5089 4.10678L62.5094 4.10728L62.8909 4.44098V4.44098Z" fill="#FEFEFE"/>
<path d="M70.1837 7.44919C70.6213 10.2088 70.3202 11.9622 69.7078 13.1606C69.0877 14.3738 68.165 15.0033 67.3583 15.5305L67.0776 15.1059C67.8329 14.6123 68.6961 14.0242 69.2572 12.9263C69.8258 11.8137 70.1016 10.1616 69.6835 7.52469L70.1837 7.44919V7.44919Z" fill="#FEFEFE"/>
<path d="M64.5867 9.48008C64.5662 10.0299 64.5848 10.6478 64.6459 11.3129C64.8997 14.0723 65.8845 17.6414 67.8548 20.5591C69.81 23.4543 72.7404 25.7039 76.8959 25.8587C77.4379 25.8788 78.0006 25.8637 78.5839 25.81L78.6296 26.3146C78.0233 26.3703 77.4395 26.3862 76.878 26.3653C72.5299 26.2034 69.4704 23.8595 67.4336 20.8432C65.4119 17.8496 64.4017 14.1886 64.1413 11.3586C64.0781 10.6707 64.0589 10.0313 64.0801 9.46228L64.5867 9.48008V9.48008Z" fill="#FEFEFE"/>
<path d="M81.0735 23.9637C77.2337 24.2507 74.575 23.6626 72.3992 22.3679C70.2316 21.0781 68.5693 19.1005 66.7021 16.5933L67.1181 16.3422C68.9439 18.7937 70.5629 20.7236 72.6411 21.9602C74.711 23.1919 77.2633 23.7496 80.9754 23.4722L81.0735 23.9637V23.9637Z" fill="#FEFEFE"/>
<path d="M24.7494 27.3135C24.7494 27.0752 24.8235 26.8879 24.9718 26.7518C25.1201 26.6157 25.3317 26.5476 25.6065 26.5476C25.6988 26.5476 25.7919 26.5598 25.8854 26.584C25.979 26.6084 26.0624 26.6388 26.1353 26.6752L26.0258 26.9123C25.9797 26.8855 25.9225 26.8606 25.8544 26.8376C25.7863 26.8145 25.7158 26.8029 25.6429 26.8029C25.5919 26.8029 25.5432 26.8126 25.497 26.832C25.4509 26.8515 25.4101 26.8813 25.3748 26.9215C25.3395 26.9615 25.3116 27.0145 25.2909 27.0801C25.2702 27.1457 25.2599 27.2235 25.2599 27.3135V27.35H25.8253V27.6053H25.2599V29.1736H24.7494V27.6053H24.4028V27.35H24.7494V27.3135V27.3135ZM28.0785 29.0095C28.1563 29.0095 28.2293 28.9949 28.2973 28.9658C28.3654 28.9365 28.4249 28.8909 28.476 28.829C28.5271 28.767 28.5678 28.6861 28.5982 28.5865C28.6286 28.4867 28.6438 28.3663 28.6438 28.2253C28.6438 28.0843 28.6286 27.964 28.5982 27.8643C28.5678 27.7645 28.5271 27.6838 28.476 27.6216C28.4249 27.5597 28.3654 27.5141 28.2973 27.485C28.2293 27.4557 28.1563 27.4411 28.0785 27.4411C28.0007 27.4411 27.9276 27.4557 27.8596 27.485C27.7915 27.5141 27.732 27.5597 27.681 27.6216C27.6298 27.6838 27.5891 27.7645 27.5588 27.8643C27.5283 27.964 27.5132 28.0843 27.5132 28.2253C27.5132 28.3663 27.5283 28.4867 27.5588 28.5865C27.5891 28.6861 27.6298 28.767 27.681 28.829C27.732 28.8909 27.7915 28.9365 27.8596 28.9658C27.9276 28.9949 28.0007 29.0095 28.0785 29.0095ZM28.0785 27.204C28.2413 27.204 28.3915 27.2266 28.5289 27.2716C28.6662 27.3165 28.7835 27.3823 28.8808 27.4685C28.9781 27.5548 29.0541 27.6618 29.1089 27.7894C29.1635 27.9172 29.1909 28.0624 29.1909 28.2253C29.1909 28.3907 29.1635 28.5365 29.1089 28.6631C29.0541 28.7895 28.9781 28.8958 28.8808 28.9822C28.7835 29.0685 28.6662 29.1341 28.5289 29.179C28.3915 29.2241 28.2413 29.2466 28.0785 29.2466C27.9132 29.2466 27.7624 29.2241 27.6261 29.179C27.49 29.1341 27.3734 29.0685 27.2761 28.9822C27.1788 28.8958 27.1029 28.7895 27.0481 28.6631C26.9934 28.5365 26.9661 28.3907 26.9661 28.2253C26.9661 28.0624 26.9934 27.9172 27.0481 27.7894C27.1029 27.6618 27.1788 27.5548 27.2761 27.4685C27.3734 27.3823 27.49 27.3165 27.6261 27.2716C27.7624 27.2266 27.9132 27.204 28.0785 27.204ZM31.5718 29.0095C31.6496 29.0095 31.7226 28.9949 31.7906 28.9658C31.8587 28.9365 31.9182 28.8909 31.9693 28.829C32.0204 28.767 32.0611 28.6861 32.0915 28.5865C32.1219 28.4867 32.1371 28.3663 32.1371 28.2253C32.1371 28.0843 32.1219 27.964 32.0915 27.8643C32.0611 27.7645 32.0204 27.6838 31.9693 27.6216C31.9182 27.5597 31.8587 27.5141 31.7906 27.485C31.7226 27.4557 31.6496 27.4411 31.5718 27.4411C31.494 27.4411 31.4209 27.4557 31.3529 27.485C31.2848 27.5141 31.2253 27.5597 31.1743 27.6216C31.1231 27.6838 31.0824 27.7645 31.0521 27.8643C31.0216 27.964 31.0065 28.0843 31.0065 28.2253C31.0065 28.3663 31.0216 28.4867 31.0521 28.5865C31.0824 28.6861 31.1231 28.767 31.1743 28.829C31.2253 28.8909 31.2848 28.9365 31.3529 28.9658C31.4209 28.9949 31.494 29.0095 31.5718 29.0095ZM31.5718 27.204C31.7346 27.204 31.8848 27.2266 32.0222 27.2716C32.1595 27.3165 32.2768 27.3823 32.3741 27.4685C32.4714 27.5548 32.5474 27.6618 32.6022 27.7894C32.6568 27.9172 32.6842 28.0624 32.6842 28.2253C32.6842 28.3907 32.6568 28.5365 32.6022 28.6631C32.5474 28.7895 32.4714 28.8958 32.3741 28.9822C32.2768 29.0685 32.1595 29.1341 32.0222 29.179C31.8848 29.2241 31.7346 29.2466 31.5718 29.2466C31.4065 29.2466 31.2557 29.2241 31.1195 29.179C30.9833 29.1341 30.8667 29.0685 30.7694 28.9822C30.6721 28.8958 30.5962 28.7895 30.5414 28.6631C30.4867 28.5365 30.4594 28.3907 30.4594 28.2253C30.4594 28.0624 30.4867 27.9172 30.5414 27.7894C30.5962 27.6618 30.6721 27.5548 30.7694 27.4685C30.8667 27.3823 30.9833 27.3165 31.1195 27.2716C31.2557 27.2266 31.4065 27.204 31.5718 27.204ZM35.521 28.9183V27.5323H35.0651C34.9824 27.5323 34.9064 27.545 34.8371 27.5706C34.7678 27.5962 34.7083 27.6369 34.6584 27.6928C34.6086 27.7487 34.5696 27.8204 34.5417 27.908C34.5137 27.9955 34.4998 28.1014 34.4998 28.2253C34.4998 28.3494 34.5137 28.4551 34.5417 28.5426C34.5696 28.6302 34.6086 28.7019 34.6584 28.7578C34.7083 28.8138 34.7678 28.8545 34.8371 28.88C34.9064 28.9056 34.9824 28.9183 35.0651 28.9183H35.521V28.9183ZM35.0651 29.1736C34.8973 29.1736 34.7447 29.1517 34.6073 29.108C34.47 29.0642 34.3527 29.001 34.2554 28.9183C34.1581 28.8356 34.0834 28.736 34.031 28.6192C33.9788 28.5026 33.9527 28.3712 33.9527 28.2253C33.9527 28.0794 33.9788 27.9482 34.031 27.8314C34.0834 27.7147 34.1581 27.615 34.2554 27.5323C34.3527 27.4496 34.47 27.3865 34.6073 27.3427C34.7447 27.2989 34.8973 27.277 35.0651 27.277H35.521V26.6205H36.0316V29.1736H35.0651V29.1736ZM39.2879 29.1736H38.7772V27.3135H39.2879V29.1736ZM39.3062 26.8211C39.3062 26.894 39.2812 26.9579 39.2314 27.0126C39.1816 27.0674 39.1153 27.0947 39.0326 27.0947C38.9499 27.0947 38.8837 27.0674 38.8338 27.0126C38.784 26.9579 38.7591 26.894 38.7591 26.8211C38.7591 26.7481 38.784 26.6844 38.8338 26.6296C38.8837 26.5749 38.9499 26.5476 39.0326 26.5476C39.1128 26.5476 39.1785 26.5749 39.2296 26.6296C39.2806 26.6844 39.3062 26.7481 39.3062 26.8211V26.8211ZM42.763 29.1736H42.2523V28.0248C42.2523 27.8497 42.2086 27.7238 42.121 27.6472C42.0335 27.5706 41.9071 27.5323 41.7417 27.5323H41.2676V29.1736H40.757V27.277H41.7417C42.0895 27.277 42.3466 27.3396 42.5132 27.4649C42.6796 27.5901 42.763 27.7767 42.763 28.0248V29.1736V29.1736ZM45.2169 27.5323C45.0418 27.5323 44.9038 27.5865 44.8028 27.6947C44.702 27.8028 44.6515 27.9677 44.6515 28.1889C44.6515 28.4102 44.702 28.5748 44.8028 28.6831C44.9038 28.7912 45.0418 28.8453 45.2169 28.8453H45.6728V27.5323H45.2169V27.5323ZM46.1833 29.1371C46.1833 29.2514 46.1614 29.3554 46.1177 29.449C46.074 29.5427 46.0089 29.6234 45.9226 29.6915C45.8362 29.7596 45.728 29.8119 45.5979 29.8483C45.4679 29.8849 45.3165 29.9031 45.1438 29.9031C45.0855 29.9031 45.023 29.8988 44.956 29.8903C44.8891 29.8818 44.8217 29.8685 44.7537 29.8502C44.6855 29.832 44.6193 29.8088 44.5549 29.781C44.4903 29.7529 44.4315 29.7207 44.3779 29.6842L44.5056 29.4654C44.5883 29.5214 44.6818 29.5657 44.7864 29.5985C44.891 29.6314 44.9979 29.6478 45.1074 29.6478C45.2898 29.6478 45.4296 29.6064 45.5269 29.5237C45.6241 29.4412 45.6728 29.3122 45.6728 29.1371V29.1007H45.2169C45.0491 29.1007 44.8964 29.0788 44.7591 29.0351C44.6217 28.9912 44.5044 28.9292 44.4071 28.849C44.3098 28.7688 44.2351 28.6727 44.1828 28.5609C44.1305 28.449 44.1044 28.325 44.1044 28.1889C44.1044 28.0526 44.1305 27.9287 44.1828 27.8168C44.2351 27.705 44.3098 27.6089 44.4071 27.5287C44.5044 27.4484 44.6217 27.3865 44.7591 27.3427C44.8964 27.2989 45.0491 27.277 45.2169 27.277H46.1833V29.1371V29.1371ZM49.0749 27.5323H48.6373C48.4719 27.5323 48.3455 27.5767 48.2579 27.6655C48.1704 27.7543 48.1266 27.8862 48.1266 28.0612V29.1736H47.616V28.0612C47.616 27.8133 47.6943 27.6206 47.8512 27.4831C48.008 27.3457 48.2336 27.277 48.5278 27.277H49.0749V27.5323V27.5323ZM51.2917 28.9912C51.4108 28.9912 51.522 28.9707 51.6254 28.9292C51.7287 28.888 51.8303 28.8295 51.9299 28.7541L52.0759 28.9731C52.0296 29.0144 51.9755 29.0521 51.9135 29.0861C51.8515 29.1202 51.7847 29.1487 51.713 29.1719C51.6412 29.1949 51.5664 29.2131 51.4886 29.2265C51.4108 29.2399 51.333 29.2466 51.2552 29.2466C51.0825 29.2466 50.9251 29.2241 50.7829 29.179C50.6405 29.1341 50.5197 29.0685 50.42 28.9822C50.3202 28.8958 50.2431 28.7895 50.1883 28.6631C50.1336 28.5365 50.1063 28.3907 50.1063 28.2253C50.1063 28.0624 50.1324 27.9172 50.1846 27.7894C50.237 27.6618 50.3099 27.5548 50.4036 27.4685C50.4971 27.3823 50.6083 27.3165 50.7373 27.2716C50.8661 27.2266 51.0083 27.204 51.164 27.204C51.3098 27.204 51.4473 27.226 51.5761 27.2698C51.705 27.3135 51.8169 27.3774 51.9117 27.4613C52.0065 27.545 52.0818 27.6467 52.1379 27.7658C52.1937 27.885 52.2218 28.0199 52.2218 28.1706V28.426H50.6644C50.6934 28.6277 50.7634 28.7724 50.874 28.86C50.9847 28.9475 51.1239 28.9912 51.2917 28.9912V28.9912ZM51.164 27.4411C51.0935 27.4411 51.0278 27.4545 50.9671 27.4813C50.9063 27.508 50.8534 27.5506 50.8083 27.6089C50.7634 27.6672 50.7269 27.7426 50.699 27.835C50.671 27.9275 50.6558 28.0394 50.6534 28.1706H51.6747C51.6747 28.0442 51.66 27.9348 51.6308 27.8423C51.6017 27.7499 51.5634 27.674 51.5159 27.6145C51.4686 27.5548 51.4139 27.5111 51.3518 27.4831C51.2898 27.4552 51.2272 27.4411 51.164 27.4411V27.4411ZM55.0586 28.9183V27.5323H54.6027C54.52 27.5323 54.444 27.545 54.3747 27.5706C54.3054 27.5962 54.2459 27.6369 54.196 27.6928C54.1462 27.7487 54.1072 27.8204 54.0793 27.908C54.0513 27.9955 54.0374 28.1014 54.0374 28.2253C54.0374 28.3494 54.0513 28.4551 54.0793 28.5426C54.1072 28.6302 54.1462 28.7019 54.196 28.7578C54.2459 28.8138 54.3054 28.8545 54.3747 28.88C54.444 28.9056 54.52 28.9183 54.6027 28.9183H55.0586V28.9183ZM54.6027 29.1736C54.4349 29.1736 54.2823 29.1517 54.1449 29.108C54.0076 29.0642 53.8903 29.001 53.793 28.9183C53.6957 28.8356 53.621 28.736 53.5686 28.6192C53.5164 28.5026 53.4903 28.3712 53.4903 28.2253C53.4903 28.0794 53.5164 27.9482 53.5686 27.8314C53.621 27.7147 53.6957 27.615 53.793 27.5323C53.8903 27.4496 54.0076 27.3865 54.1449 27.3427C54.2823 27.2989 54.4349 27.277 54.6027 27.277H55.0586V26.6205H55.5692V29.1736H54.6027V29.1736ZM57.5489 29.1736H57.0382V27.3135H57.5489V29.1736ZM57.5672 26.8211C57.5672 26.894 57.5422 26.9579 57.4924 27.0126C57.4426 27.0674 57.3763 27.0947 57.2936 27.0947C57.2109 27.0947 57.1447 27.0674 57.0948 27.0126C57.045 26.9579 57.0201 26.894 57.0201 26.8211C57.0201 26.7481 57.045 26.6844 57.0948 26.6296C57.1447 26.5749 57.2109 26.5476 57.2936 26.5476C57.3738 26.5476 57.4395 26.5749 57.4906 26.6296C57.5416 26.6844 57.5672 26.7481 57.5672 26.8211ZM60.1122 28.9912C60.2313 28.9912 60.3425 28.9707 60.4459 28.9292C60.5491 28.888 60.6507 28.8295 60.7503 28.7541L60.8964 28.9731C60.8501 29.0144 60.7959 29.0521 60.734 29.0861C60.672 29.1202 60.6051 29.1487 60.5334 29.1719C60.4617 29.1949 60.3869 29.2131 60.3091 29.2265C60.2313 29.2399 60.1534 29.2466 60.0756 29.2466C59.903 29.2466 59.7456 29.2241 59.6034 29.179C59.461 29.1341 59.3402 29.0685 59.2404 28.9822C59.1407 28.8958 59.0636 28.7895 59.0088 28.6631C58.9541 28.5365 58.9268 28.3907 58.9268 28.2253C58.9268 28.0624 58.9529 27.9172 59.0051 27.7894C59.0575 27.6618 59.1304 27.5548 59.2241 27.4685C59.3176 27.3823 59.4288 27.3165 59.5578 27.2716C59.6866 27.2266 59.8288 27.204 59.9844 27.204C60.1303 27.204 60.2678 27.226 60.3966 27.2698C60.5254 27.3135 60.6374 27.3774 60.7322 27.4613C60.8269 27.545 60.9023 27.6467 60.9583 27.7658C61.0142 27.885 61.0422 28.0199 61.0422 28.1706V28.426H59.4848C59.5139 28.6277 59.5839 28.7724 59.6944 28.86C59.8051 28.9475 59.9444 28.9912 60.1122 28.9912V28.9912ZM59.9844 27.4411C59.9139 27.4411 59.8483 27.4545 59.7875 27.4813C59.7268 27.508 59.6739 27.5506 59.6288 27.6089C59.5839 27.6672 59.5473 27.7426 59.5195 27.835C59.4915 27.9275 59.4763 28.0394 59.4739 28.1706H60.4951C60.4951 28.0442 60.4805 27.9348 60.4513 27.8423C60.4222 27.7499 60.3839 27.674 60.3364 27.6145C60.289 27.5548 60.2344 27.5111 60.1723 27.4831C60.1103 27.4552 60.0476 27.4411 59.9844 27.4411V27.4411ZM64.4079 29.1736H63.8972V28.0248C63.8972 27.8497 63.8535 27.7238 63.766 27.6472C63.6784 27.5706 63.552 27.5323 63.3867 27.5323H62.9125V29.1736H62.4019V27.277H63.3867C63.7344 27.277 63.9915 27.3396 64.1581 27.4649C64.3246 27.5901 64.4079 27.7767 64.4079 28.0248V29.1736V29.1736ZM65.9318 27.5323H65.5852V27.277H65.9318V26.6935H66.4423V27.277H67.0077V27.5323H66.4423V28.4807C66.4423 28.5731 66.4526 28.6514 66.4733 28.7158C66.494 28.7804 66.5219 28.8326 66.5572 28.8727C66.5925 28.9129 66.6333 28.9426 66.6794 28.9621C66.7256 28.9815 66.7743 28.9912 66.8253 28.9912C66.8982 28.9912 66.9687 28.9797 67.0368 28.9566C67.1049 28.9336 67.1621 28.9085 67.2083 28.8819L67.3177 29.119C67.2448 29.1554 67.1614 29.1858 67.0678 29.2102C66.9743 29.2344 66.8812 29.2466 66.7889 29.2466C66.5141 29.2466 66.3026 29.1785 66.1542 29.0424C66.0059 28.9061 65.9318 28.719 65.9318 28.4807V27.5323ZM68.9144 27.6782C68.9144 27.7342 68.9393 27.7852 68.9892 27.8314C69.039 27.8777 69.1234 27.9177 69.2427 27.9518L69.808 28.116C69.983 28.167 70.1181 28.2363 70.2128 28.3238C70.3076 28.4114 70.3551 28.5244 70.3551 28.6631C70.3551 28.7505 70.3369 28.8302 70.3003 28.9019C70.2639 28.9736 70.2043 29.0351 70.1217 29.0861C70.039 29.1371 69.932 29.1766 69.8007 29.2046C69.6693 29.2326 69.5076 29.2466 69.3156 29.2466C69.2159 29.2466 69.118 29.2393 69.022 29.2246C68.9259 29.2102 68.8348 29.19 68.7485 29.1646C68.6621 29.139 68.5837 29.1098 68.5131 29.077C68.4426 29.0441 68.3819 29.0095 68.3309 28.9731L68.4767 28.7541C68.5788 28.8175 68.6985 28.8727 68.836 28.9202C68.9734 28.9675 69.1332 28.9912 69.3156 28.9912C69.498 28.9912 69.6256 28.967 69.6986 28.9183C69.7715 28.8697 69.808 28.8089 69.808 28.736C69.808 28.68 69.7825 28.6296 69.7314 28.5846C69.6803 28.5397 69.5903 28.4989 69.4615 28.4624L68.8961 28.2982C68.7405 28.2521 68.6134 28.1858 68.515 28.0995C68.4165 28.0131 68.3673 27.897 68.3673 27.7511C68.3673 27.6733 68.3849 27.6011 68.4202 27.5342C68.4554 27.4672 68.5107 27.4096 68.5861 27.3609C68.6615 27.3123 68.7575 27.274 68.8743 27.246C68.991 27.2181 69.132 27.204 69.2973 27.204C69.4992 27.204 69.6822 27.2315 69.8463 27.2862C70.0103 27.3408 70.1435 27.4047 70.2457 27.4777L70.0998 27.6965C70.0001 27.6333 69.8871 27.5779 69.7605 27.5306C69.6341 27.4831 69.4797 27.4594 69.2973 27.4594C69.1685 27.4594 69.0724 27.4801 69.0092 27.5214C68.946 27.5628 68.9144 27.615 68.9144 27.6782V27.6782Z" fill="white"/>
</svg>
