<svg width="24" height="24" viewBox="0 0 24 24" fill="none" xmlns="http://www.w3.org/2000/svg">
<path d="M22.6964 20.0909L4.45255 1.84708C3.73285 1.12738 2.56598 1.12738 1.84628 1.84708C1.12658 2.56678 1.12658 3.73364 1.84628 4.45334L20.0901 22.6972C20.8098 23.4169 21.9767 23.4169 22.6964 22.6972C23.4161 21.9775 23.4161 20.8106 22.6964 20.0909Z" fill="#FF3D4C"/>
<path d="M20.0909 1.84708L1.84708 20.0909C1.12738 20.8106 1.12738 21.9775 1.84708 22.6972C2.56678 23.4169 3.73364 23.4169 4.45334 22.6972L22.6972 4.45334C23.4169 3.73364 23.4169 2.56678 22.6972 1.84708C21.9775 1.12738 20.8106 1.12738 20.0909 1.84708Z" fill="#FF3D4C"/>
</svg>
