<svg width="25" height="24" viewBox="0 0 25 24" fill="none" xmlns="http://www.w3.org/2000/svg">
<g clip-path="url(#clip0_39:502)">
<path d="M10.8385 14.2482L14.7419 12L10.8385 9.75183V14.2482Z" fill="#FFF1ED"/>
<path d="M12.3334 0C0.333374 0 0.333374 0 0.333374 12C0.333374 24 0.333374 24 12.3334 24C24.3334 24 24.3334 24 24.3334 12C24.3334 0 24.3334 0 12.3334 0ZM19.8315 12.0123C19.8315 12.0123 19.8315 14.4459 19.5228 15.6194C19.3498 16.2618 18.8433 16.7682 18.201 16.9411C17.0275 17.25 12.3334 17.25 12.3334 17.25C12.3334 17.25 7.65155 17.25 6.46576 16.9288C5.82343 16.756 5.31696 16.2493 5.14392 15.607C4.83502 14.4459 4.83502 12 4.83502 12C4.83502 12 4.83502 9.56653 5.14392 8.39301C5.31677 7.75067 5.83569 7.23175 6.46576 7.0589C7.63928 6.75 12.3334 6.75 12.3334 6.75C12.3334 6.75 17.0275 6.75 18.201 7.07117C18.8433 7.24402 19.3498 7.75067 19.5228 8.39301C19.844 9.56653 19.8315 12.0123 19.8315 12.0123Z" fill="#FFF1ED"/>
</g>
<defs>
<clipPath id="clip0_39:502">
<rect x="0.333374" width="24" height="24" fill="white"/>
</clipPath>
</defs>
</svg>
