<svg width="25" height="24" viewBox="0 0 25 24" fill="none" xmlns="http://www.w3.org/2000/svg">
<g clip-path="url(#clip0_39:315)">
<path d="M14.6304 12C14.6304 13.2686 13.6021 14.2969 12.3335 14.2969C11.0649 14.2969 10.0366 13.2686 10.0366 12C10.0366 10.7314 11.0649 9.70312 12.3335 9.70312C13.6021 9.70312 14.6304 10.7314 14.6304 12Z" fill="#FF3D4C"/>
<path d="M17.7048 7.93622C17.5944 7.63702 17.4183 7.36621 17.1894 7.14392C16.9671 6.91504 16.6965 6.73889 16.3971 6.62848C16.1543 6.53418 15.7896 6.42194 15.1177 6.39136C14.391 6.35822 14.1731 6.35107 12.3333 6.35107C10.4932 6.35107 10.2753 6.35803 9.54877 6.39117C8.87695 6.42194 8.51202 6.53418 8.26941 6.62848C7.97003 6.73889 7.69922 6.91504 7.47711 7.14392C7.24823 7.36621 7.07208 7.63684 6.96149 7.93622C6.86719 8.17902 6.75494 8.54395 6.72437 9.21576C6.69122 9.94232 6.68408 10.1602 6.68408 12.0002C6.68408 13.8401 6.69122 14.058 6.72437 14.7847C6.75494 15.4565 6.86719 15.8213 6.96149 16.0641C7.07208 16.3635 7.24805 16.6341 7.47693 16.8564C7.69922 17.0853 7.96985 17.2614 8.26923 17.3718C8.51202 17.4663 8.87695 17.5786 9.54877 17.6091C10.2753 17.6423 10.493 17.6492 12.3331 17.6492C14.1733 17.6492 14.3912 17.6423 15.1176 17.6091C15.7894 17.5786 16.1543 17.4663 16.3971 17.3718C16.9981 17.14 17.473 16.665 17.7048 16.0641C17.7991 15.8213 17.9114 15.4565 17.9421 14.7847C17.9753 14.058 17.9822 13.8401 17.9822 12.0002C17.9822 10.1602 17.9753 9.94232 17.9421 9.21576C17.9116 8.54395 17.7993 8.17902 17.7048 7.93622V7.93622ZM12.3333 15.5384C10.379 15.5384 8.79474 13.9544 8.79474 12.0001C8.79474 10.0458 10.379 8.46173 12.3333 8.46173C14.2874 8.46173 15.8716 10.0458 15.8716 12.0001C15.8716 13.9544 14.2874 15.5384 12.3333 15.5384ZM16.0115 9.14874C15.5548 9.14874 15.1846 8.77851 15.1846 8.32184C15.1846 7.86517 15.5548 7.49493 16.0115 7.49493C16.4681 7.49493 16.8384 7.86517 16.8384 8.32184C16.8382 8.77851 16.4681 9.14874 16.0115 9.14874Z" fill="#FF3D4C"/>
<path d="M12.3335 0C0.333496 0 0.333496 0 0.333496 12C0.333496 24 0.333496 24 12.3335 24C24.3335 24 24.3335 24 24.3335 12C24.3335 0 24.3335 0 12.3335 0ZM19.1826 14.8409C19.1492 15.5744 19.0326 16.0752 18.8623 16.5135C18.5043 17.4391 17.7726 18.1708 16.847 18.5288C16.4089 18.6991 15.9079 18.8156 15.1746 18.8491C14.4398 18.8826 14.205 18.8906 12.3337 18.8906C10.4622 18.8906 10.2276 18.8826 9.49261 18.8491C8.75928 18.8156 8.2583 18.6991 7.82013 18.5288C7.36017 18.3558 6.94379 18.0846 6.59955 17.7339C6.24908 17.3899 5.97791 16.9733 5.80487 16.5135C5.63458 16.0754 5.51794 15.5744 5.48462 14.8411C5.45074 14.1061 5.44287 13.8713 5.44287 12C5.44287 10.1287 5.45074 9.89392 5.48444 9.15912C5.51776 8.4256 5.63422 7.9248 5.8045 7.48645C5.97754 7.02667 6.2489 6.61011 6.59955 6.26605C6.9436 5.91541 7.36017 5.64423 7.81995 5.47119C8.2583 5.3009 8.75909 5.18445 9.49261 5.15094C10.2274 5.11743 10.4622 5.10938 12.3335 5.10938C14.2048 5.10938 14.4396 5.11743 15.1744 5.15112C15.9079 5.18445 16.4087 5.3009 16.847 5.47101C17.3068 5.64404 17.7234 5.91541 18.0676 6.26605C18.4181 6.61029 18.6895 7.02667 18.8623 7.48645C19.0328 7.9248 19.1492 8.4256 19.1827 9.15912C19.2162 9.89392 19.2241 10.1287 19.2241 12C19.2241 13.8713 19.2162 14.1061 19.1826 14.8409Z" fill="#FF3D4C"/>
</g>
<defs>
<clipPath id="clip0_39:315">
<rect x="0.333496" width="24" height="24" fill="white"/>
</clipPath>
</defs>
</svg>
