<svg width="25" height="24" viewBox="0 0 25 24" fill="none" xmlns="http://www.w3.org/2000/svg">
<g clip-path="url(#clip0_39:497)">
<path d="M12.3334 0C0.333374 0 0.333374 0 0.333374 12C0.333374 24 0.333374 24 12.3334 24C24.3334 24 24.3334 24 24.3334 12C24.3334 0 24.3334 0 12.3334 0ZM18.4204 13.2978C18.9797 13.8441 19.5714 14.3583 20.0735 14.961C20.296 15.2277 20.5056 15.5034 20.6652 15.8135C20.8931 16.2557 20.6873 16.7406 20.2916 16.7669L17.8331 16.7664C17.1982 16.8189 16.6929 16.5628 16.2669 16.1287C15.9269 15.7828 15.6114 15.4133 15.2838 15.0556C15.15 14.9087 15.0091 14.7705 14.8412 14.6617C14.506 14.4437 14.2148 14.5105 14.0228 14.8606C13.8271 15.2169 13.7825 15.6117 13.7638 16.0082C13.737 16.5879 13.5622 16.7394 12.9806 16.7666C11.7377 16.8248 10.5585 16.6362 9.46246 16.0097C8.49558 15.457 7.74723 14.677 7.09511 13.7938C5.82526 12.0722 4.85274 10.1826 3.97892 8.23881C3.78225 7.80104 3.92613 7.56681 4.40908 7.55773C5.21145 7.54226 6.01382 7.54423 6.8162 7.55699C7.14275 7.56215 7.35881 7.74899 7.48427 8.05713C7.91787 9.12393 8.44943 10.1389 9.11553 11.0803C9.29305 11.3309 9.47424 11.5809 9.73229 11.7579C10.0171 11.9534 10.2341 11.8888 10.3684 11.5708C10.4544 11.3688 10.4915 11.1527 10.5101 10.9361C10.5739 10.1944 10.5816 9.45293 10.4711 8.71415C10.4023 8.25183 10.1423 7.95327 9.68147 7.86586C9.44675 7.82142 9.48112 7.73451 9.59529 7.60045C9.79343 7.36868 9.97904 7.22529 10.35 7.22529L12.8357 7.22485C13.0299 7.22482 13.233 7.2238 13.404 7.31577C13.6135 7.42847 13.679 7.62101 13.723 7.94811L13.7255 11.0348C13.7203 11.2055 13.8112 11.7113 14.1176 11.823C14.3631 11.904 14.5252 11.7071 14.672 11.5517C15.3381 10.8448 15.8127 10.0105 16.2377 9.14701C16.4253 8.7662 16.5871 8.37213 16.7442 7.97733C16.8611 7.6854 17.0428 7.54177 17.3723 7.54668L20.047 7.54987C20.1258 7.54987 20.2059 7.55061 20.2839 7.56411C20.7347 7.64121 20.8582 7.83517 20.7188 8.27491C20.4993 8.96581 20.0728 9.54132 19.6559 10.1183C19.209 10.736 18.7325 11.3322 18.29 11.9526C17.8835 12.5198 17.9156 12.8053 18.4204 13.2978Z" fill="#FFF1ED"/>
</g>
<defs>
<clipPath id="clip0_39:497">
<rect width="24" height="24" fill="white" transform="translate(0.333374)"/>
</clipPath>
</defs>
</svg>
