<svg width="25" height="24" viewBox="0 0 25 24" fill="none" xmlns="http://www.w3.org/2000/svg">
<g clip-path="url(#clip0_39:307)">
<path d="M12.3335 0C0.333496 0 0.333496 0 0.333496 12C0.333496 24 0.333496 24 12.3335 24C24.3335 24 24.3335 24 24.3335 12C24.3335 0 24.3335 0 12.3335 0ZM18.4205 13.2978C18.9798 13.8441 19.5716 14.3583 20.0737 14.961C20.2961 15.2277 20.5058 15.5034 20.6654 15.8135C20.8932 16.2557 20.6875 16.7406 20.2917 16.7669L17.8332 16.7664C17.1983 16.8189 16.693 16.5628 16.267 16.1287C15.927 15.7828 15.6115 15.4133 15.284 15.0556C15.1502 14.9087 15.0092 14.7705 14.8413 14.6617C14.5061 14.4437 14.215 14.5105 14.023 14.8606C13.8273 15.2169 13.7826 15.6117 13.7639 16.0082C13.7372 16.5879 13.5623 16.7394 12.9807 16.7666C11.7379 16.8248 10.5586 16.6362 9.46258 16.0097C8.49571 15.457 7.74735 14.677 7.09524 13.7938C5.82538 12.0722 4.85286 10.1826 3.97904 8.23881C3.78238 7.80104 3.92625 7.56681 4.4092 7.55773C5.21157 7.54226 6.01395 7.54423 6.81632 7.55699C7.14287 7.56215 7.35893 7.74899 7.48439 8.05713C7.91799 9.12393 8.44955 10.1389 9.11565 11.0803C9.29317 11.3309 9.47437 11.5809 9.73241 11.7579C10.0172 11.9534 10.2343 11.8888 10.3686 11.5708C10.4545 11.3688 10.4916 11.1527 10.5102 10.9361C10.5741 10.1944 10.5817 9.45293 10.4712 8.71415C10.4024 8.25183 10.1424 7.95327 9.68159 7.86586C9.44687 7.82142 9.48124 7.73451 9.59541 7.60045C9.79355 7.36868 9.97916 7.22529 10.3502 7.22529L12.8358 7.22485C13.03 7.22482 13.2331 7.2238 13.4041 7.31577C13.6137 7.42847 13.6791 7.62101 13.7232 7.94811L13.7256 11.0348C13.7205 11.2055 13.8113 11.7113 14.1177 11.823C14.3632 11.904 14.5253 11.7071 14.6721 11.5517C15.3382 10.8448 15.8128 10.0105 16.2378 9.14701C16.4254 8.7662 16.5872 8.37213 16.7443 7.97733C16.8612 7.6854 17.0429 7.54177 17.3724 7.54668L20.0471 7.54987C20.1259 7.54987 20.206 7.55061 20.2841 7.56411C20.7348 7.64121 20.8583 7.83517 20.7189 8.27491C20.4994 8.96581 20.0729 9.54132 19.656 10.1183C19.2092 10.736 18.7326 11.3322 18.2902 11.9526C17.8836 12.5198 17.9157 12.8053 18.4205 13.2978Z" fill="#FF3D4C"/>
</g>
<defs>
<clipPath id="clip0_39:307">
<rect width="24" height="24" fill="white" transform="translate(0.333496)"/>
</clipPath>
</defs>
</svg>
