<svg width="25" height="24" viewBox="0 0 25 24" fill="none" xmlns="http://www.w3.org/2000/svg">
<g clip-path="url(#clip0_39:312)">
<path d="M10.8386 14.2482L14.7421 12L10.8386 9.75183V14.2482Z" fill="#FF3D4C"/>
<path d="M12.3335 0C0.333496 0 0.333496 0 0.333496 12C0.333496 24 0.333496 24 12.3335 24C24.3335 24 24.3335 24 24.3335 12C24.3335 0 24.3335 0 12.3335 0ZM19.8317 12.0123C19.8317 12.0123 19.8317 14.4459 19.5229 15.6194C19.3499 16.2618 18.8434 16.7682 18.2011 16.9411C17.0276 17.25 12.3335 17.25 12.3335 17.25C12.3335 17.25 7.65167 17.25 6.46588 16.9288C5.82355 16.756 5.31708 16.2493 5.14404 15.607C4.83514 14.4459 4.83514 12 4.83514 12C4.83514 12 4.83514 9.56653 5.14404 8.39301C5.31689 7.75067 5.83582 7.23175 6.46588 7.0589C7.6394 6.75 12.3335 6.75 12.3335 6.75C12.3335 6.75 17.0276 6.75 18.2011 7.07117C18.8434 7.24402 19.3499 7.75067 19.5229 8.39301C19.8441 9.56653 19.8317 12.0123 19.8317 12.0123Z" fill="#FF3D4C"/>
</g>
<defs>
<clipPath id="clip0_39:312">
<rect x="0.333496" width="24" height="24" fill="white"/>
</clipPath>
</defs>
</svg>
